<svg width="88" height="13" viewBox="0 0 88 13" fill="none" xmlns="http://www.w3.org/2000/svg">
<path d="M3.89782 12V6.53514H5.67481L5.93895 4.39547H3.89782V3.03259C3.89782 2.41516 4.06363 1.99243 4.91774 1.99243H6V0.0847928C5.47342 0.0262443 4.94412 -0.00202566 4.41453 0.000112795C2.84383 0.000112795 1.76542 0.994936 1.76542 2.82122V4.39147H0V6.53114H1.76928V12H3.89782Z" fill="#444444"/>
<path d="M40.9954 2.91309C40.1781 2.91309 39.3944 3.23772 38.8166 3.81558C38.2387 4.39343 37.9141 5.17717 37.9141 5.99438C37.9141 6.81159 38.2387 7.59533 38.8166 8.17319C39.3944 8.75104 40.1781 9.07568 40.9954 9.07568C41.8126 9.07568 42.5963 8.75104 43.1742 8.17319C43.752 7.59533 44.0767 6.81159 44.0767 5.99438C44.0767 5.17717 43.752 4.39343 43.1742 3.81558C42.5963 3.23772 41.8126 2.91309 40.9954 2.91309ZM40.9954 7.99549C40.4645 7.99549 39.9553 7.78459 39.5799 7.40919C39.2045 7.03378 38.9936 6.52462 38.9936 5.99372C38.9936 5.46281 39.2045 4.95365 39.5799 4.57825C39.9553 4.20284 40.4645 3.99194 40.9954 3.99194C41.5263 3.99194 42.0354 4.20284 42.4108 4.57825C42.7862 4.95365 42.9971 5.46281 42.9971 5.99372C42.9971 6.52462 42.7862 7.03378 42.4108 7.40919C42.0354 7.78459 41.5263 7.99549 40.9954 7.99549Z" fill="#444444"/>
<path d="M46.6821 2.06975C46.5279 1.67138 46.2921 1.30961 45.99 1.00759C45.6879 0.705576 45.326 0.469972 44.9276 0.31586C44.4614 0.140842 43.9688 0.0462069 43.4709 0.0359839C42.8292 0.00799638 42.6259 0 40.9987 0C39.3714 0 39.1628 -6.70254e-08 38.5264 0.0359839C38.0289 0.0456842 37.5367 0.140339 37.0711 0.31586C36.6725 0.469792 36.3106 0.705333 36.0084 1.00737C35.7063 1.30941 35.4706 1.67127 35.3165 2.06975C35.1415 2.53595 35.0471 3.02855 35.0373 3.52643C35.0087 4.16748 35 4.37072 35 5.99867C35 7.62594 35 7.83319 35.0373 8.4709C35.0473 8.96935 35.1413 9.46113 35.3165 9.92825C35.471 10.3266 35.7069 10.6883 36.0092 10.9903C36.3114 11.2923 36.6733 11.5279 37.0717 11.6821C37.5365 11.8642 38.0289 11.9656 38.5278 11.982C39.1695 12.01 39.3727 12.0187 41 12.0187C42.6273 12.0187 42.8359 12.0187 43.4722 11.982C43.9701 11.9719 44.4626 11.8775 44.9289 11.7028C45.3272 11.5483 45.689 11.3125 45.9911 11.0104C46.2932 10.7083 46.529 10.3466 46.6835 9.94825C46.8587 9.48179 46.9527 8.99 46.9627 8.49156C46.9913 7.85051 47 7.64727 47 6.01932C47 4.39138 47 4.18481 46.9627 3.54709C46.9549 3.04216 46.86 2.54237 46.6821 2.06975ZM45.8705 8.42159C45.8662 8.80562 45.7961 9.18608 45.6633 9.54642C45.5632 9.80555 45.41 10.0409 45.2135 10.2372C45.017 10.4336 44.7816 10.5867 44.5224 10.6866C44.1661 10.8188 43.7897 10.8889 43.4096 10.8938C42.7765 10.9231 42.598 10.9305 40.9747 10.9305C39.3501 10.9305 39.1841 10.9305 38.5391 10.8938C38.1592 10.8892 37.783 10.8191 37.4269 10.6866C37.1668 10.5873 36.9305 10.4345 36.7332 10.2381C36.5358 10.0417 36.3819 9.80605 36.2814 9.54642C36.1505 9.18995 36.0804 8.81398 36.0742 8.43425C36.0455 7.8012 36.0389 7.62261 36.0389 5.99933C36.0389 4.37539 36.0389 4.20946 36.0742 3.56375C36.0785 3.17993 36.1486 2.7997 36.2814 2.43958C36.4847 1.91382 36.9012 1.5 37.4269 1.29876C37.7832 1.16691 38.1593 1.09682 38.5391 1.09151C39.1728 1.06286 39.3507 1.05486 40.9747 1.05486C42.5986 1.05486 42.7652 1.05486 43.4096 1.09151C43.7897 1.09609 44.1662 1.1662 44.5224 1.29876C44.7816 1.39889 45.017 1.55211 45.2134 1.74858C45.4099 1.94504 45.5631 2.18041 45.6633 2.43958C45.7942 2.79606 45.8643 3.17203 45.8705 3.55175C45.8992 4.18547 45.9065 4.36339 45.9065 5.98734C45.9065 7.61062 45.9065 7.78521 45.8778 8.42226H45.8705V8.42159Z" fill="#444444"/>
<path d="M87.7355 3.415C87.6616 3.14357 87.517 2.89602 87.3162 2.69701C87.1154 2.498 86.8654 2.35447 86.5911 2.28069C85.5739 2.0045 81.5045 2 81.5045 2C81.5045 2 77.4358 1.99551 76.4179 2.2595C76.1438 2.33667 75.8943 2.48223 75.6934 2.68222C75.4926 2.88221 75.347 3.1299 75.2709 3.40152C75.0026 4.40737 75 6.49358 75 6.49358C75 6.49358 74.9974 8.59006 75.2637 9.58564C75.4131 10.1361 75.8515 10.5709 76.4089 10.7193C77.4364 10.9955 81.4948 11 81.4948 11C81.4948 11 85.5641 11.0045 86.5813 10.7411C86.8557 10.6675 87.106 10.5243 87.3073 10.3257C87.5086 10.1271 87.6539 9.87996 87.729 9.60876C87.998 8.60355 87.9999 6.51798 87.9999 6.51798C87.9999 6.51798 88.0129 4.42086 87.7355 3.415ZM80.2028 8.42628L80.2061 4.57244L83.5882 6.50257L80.2028 8.42628Z" fill="#444444"/>
</svg>
